<svg id="air-transmission"   fill="#565656"  enable-background="new 0 0 300 300" height="512" viewBox="0 0 300 300" width="512" xmlns="http://www.w3.org/2000/svg"><g><path d="m272 148h-190c-20.953 0-38-17.047-38-38s17.047-38 38-38c11.791 0 22.719 5.34 29.982 14.65 1.361 1.74 3.877 2.051 5.615.693 1.742-1.359 2.051-3.873.694-5.615-8.791-11.265-22.017-17.728-36.291-17.728-25.365 0-46 20.635-46 46 0 24.464 19.21 44.47 43.33 45.865.226.039.432.135.67.135h192c2.209 0 4-1.791 4-4s-1.791-4-4-4z"/><path d="m116 128c-2.209 0-4 1.791-4 4s1.791 4 4 4h92c2.209 0 4-1.791 4-4s-1.791-4-4-4z"/><path d="m80 210c0 7.719 6.281 14 14 14s14-6.281 14-14-6.281-14-14-14-14 6.281-14 14zm20 0c0 3.308-2.692 6-6 6s-6-2.692-6-6 2.692-6 6-6 6 2.692 6 6z"/><path d="m44 192h-4c-4.412 0-8-3.588-8-8s3.588-8 8-8h44c2.209 0 4-1.791 4-4s-1.791-4-4-4h-44c-8.822 0-16 7.178-16 16s7.178 16 16 16h4c2.209 0 4-1.791 4-4s-1.791-4-4-4z"/><path d="m240 168h-144c-2.209 0-4 1.791-4 4s1.791 4 4 4h144c2.209 0 4-1.791 4-4s-1.791-4-4-4z"/><path d="m220 184h-130c-14.336 0-26 11.664-26 26s11.664 26 26 26h6c13.234 0 24-10.766 24-24 0-2.209-1.791-4-4-4s-4 1.791-4 4c0 8.822-7.178 16-16 16h-6c-9.926 0-18-8.074-18-18s8.074-18 18-18h130c2.209 0 4-1.791 4-4s-1.791-4-4-4z"/><path d="m156 116h56c2.209 0 4-1.791 4-4s-1.791-4-4-4h-56c-6.617 0-12-5.383-12-12s5.383-12 12-12 12 5.383 12 12c0 2.209 1.791 4 4 4s4-1.791 4-4c0-11.027-8.973-20-20-20s-20 8.973-20 20 8.973 20 20 20z"/><path d="m224 136h16c2.209 0 4-1.791 4-4s-1.791-4-4-4h-16c-2.209 0-4 1.791-4 4s1.791 4 4 4z"/><path d="m184 200h-34c-9.926 0-18 8.074-18 18s8.074 18 18 18h10c2.209 0 4-1.791 4-4s-1.791-4-4-4h-10c-5.514 0-10-4.486-10-10s4.486-10 10-10h34c2.209 0 4-1.791 4-4s-1.791-4-4-4z"/><path d="m106.504 113.865c2.209 0 4-1.791 4-4s-1.791-4-4-4h-2.084c-.577-3.169-1.817-6.106-3.585-8.658l3.626-3.621c1.563-1.561 1.564-4.094.004-5.656-1.56-1.564-4.092-1.564-5.656-.004l-3.628 3.622c-2.556-1.775-5.5-3.02-8.677-3.598v-2.084c0-2.209-1.791-4-4-4s-4 1.791-4 4v2.084c-3.177.579-6.12 1.823-8.677 3.598l-3.626-3.622c-1.562-1.558-4.094-1.562-5.656.004-1.56 1.562-1.56 4.096.004 5.656l3.624 3.62c-1.768 2.552-3.008 5.49-3.585 8.659h-2.084c-2.209 0-4 1.791-4 4s1.791 4 4 4h2.084c.578 3.169 1.817 6.107 3.585 8.659l-3.624 3.62c-1.564 1.561-1.564 4.094-.004 5.656.781.783 1.805 1.174 2.83 1.174 1.023 0 2.047-.391 2.826-1.17l3.626-3.622c2.556 1.775 5.5 3.019 8.677 3.598v2.084c0 2.209 1.791 4 4 4s4-1.791 4-4v-2.084c3.177-.579 6.12-1.824 8.677-3.599l3.627 3.623c.782.779 1.803 1.17 2.826 1.17s2.049-.391 2.83-1.174c1.56-1.562 1.56-4.096-.004-5.656l-3.626-3.621c1.768-2.552 3.007-5.489 3.584-8.658zm-24 10.295c-7.883 0-14.295-6.412-14.295-14.295s6.412-14.295 14.295-14.295 14.295 6.412 14.295 14.295-6.412 14.295-14.295 14.295z"/></g></svg>