<svg id="Capa_1"  fill="#565656"  enable-background="new 0 0 512 512" height="512" viewBox="0 0 512 512" width="512" xmlns="http://www.w3.org/2000/svg"><g><path d="m512 277.615v-62.98c0-20.678-16.822-37.5-37.5-37.5h-8.666l-27.532-77.058c-6.034-16.862-22.118-28.192-40.022-28.192h-284.56c-17.904 0-33.988 11.33-40.023 28.196l-27.532 77.054h-8.665c-20.678 0-37.5 16.822-37.5 37.5v62.98c0 17.554 12.126 32.323 28.439 36.387l-10.056 41.624c-.973 4.025 1.502 8.078 5.529 9.051 3.924.948 8.079-1.461 9.051-5.529l10.637-44.032h18.08l-11.44 110.001h-30.036c-1.816-.072-2.786-1.305-2.431-3.087l8.704-36.024c.973-4.026-1.503-8.079-5.529-9.052-4.024-.979-8.079 1.502-9.052 5.529l-8.703 36.024c-2.684 10.737 5.856 21.692 17.011 21.609 44.031-.326 426.04-.293 471.593 0 11.073.071 19.688-10.845 17.011-21.609l-25.247-104.505c16.313-4.064 28.439-18.834 28.439-36.387zm-424.179-172.485c3.905-10.913 14.314-18.246 25.899-18.246h284.56c11.585 0 21.994 7.333 25.898 18.243l25.728 72.007h-37.17l-17.963-50.274c-1.066-2.984-3.893-4.977-7.063-4.977h-263.42c-3.169 0-5.996 1.992-7.063 4.977l-17.963 50.274h-37.17zm10.087 319.985h-32.587l11.44-110.001h27.307zm41.886 0h-26.862l6.16-110.001h25.102zm42.847 0h-27.835l4.4-110.001h25.52zm42.966 0h-27.963l2.085-110.001h27.453zm44.103 0h-29.102l1.575-110.001h27.528v110.001zm15 0v-110h27.502l1.205 110.001h-28.707zm43.708 0-1.205-110.001h25.58l4.4 110.001zm43.788 0-4.4-110.001h26.045l5.28 110.001zm41.942 0-5.28-110.001h25.317l10.56 110.001zm80.079-3.087c.361 1.805-.61 3.015-2.431 3.088h-31.982l-10.56-110.001h19.144zm2.773-144.413c0 12.406-10.093 22.5-22.5 22.5h-437c-12.407 0-22.5-10.094-22.5-22.5v-62.98c0-12.406 10.093-22.5 22.5-22.5h323.742c4.142 0 7.5-3.357 7.5-7.5s-3.358-7.5-7.5-7.5h-246.048l14.381-40.251h252.851l14.381 40.251h-5.565c-4.142 0-7.5 3.357-7.5 7.5s3.358 7.5 7.5 7.5h16.196c.004 0 .008.001.013.001.008 0 .015-.001.023-.001h53.052c.008 0 .017.002.025.002.015 0 .031-.002.046-.002h13.903c12.407 0 22.5 10.094 22.5 22.5z"/></g></svg>