<svg id="Capa_1" fill="#565656" enable-background="new 0 0 512 512" height="512" viewBox="0 0 512 512" width="512" xmlns="http://www.w3.org/2000/svg"><g><path d="m256.199 151.757c-23.285 0-47.419 10.931-62.984 28.525l11.234 9.939c12.804-14.474 32.633-23.465 51.75-23.465 19.418 0 39.429 9.198 52.223 24.005 7.073 8.186 14.958 21.667 12.357 39.408l-29.211 199.221 14.841 2.176 29.211-199.221c2.672-18.221-2.957-36.472-15.848-51.392-15.562-18.009-39.922-29.196-63.573-29.196z"/><path d="m256.199 497c-16.257 0-25.865-2.795-34.28-60.188l-6.887-46.969c5.981.328 12.841.529 20.955.618l.164-14.998c-9.338-.103-16.92-.354-23.342-.78l-4.441-30.284c8.389.676 18.609 1.019 32.164 1.101l.091-15c-15.17-.092-25.927-.508-34.492-1.358l-4.457-30.399c12.38 1.44 27.684 1.78 46.993 1.78v-15c-21.062 0-37.079-.393-49.254-2.197l-7.794-53.155c-1.476-10.063.288-19.856 5.241-29.107l-13.224-7.08c-6.411 11.974-8.783 25.24-6.858 38.363l30.3 206.642c8.303 56.634 19.321 73.011 49.121 73.011 28.636 0 39.843-15.301 47.963-65.488l-14.808-2.396c-8.159 50.428-17.445 52.884-33.155 52.884z"/><path d="m305.937 227.993c1.417-9.662-1.587-19.113-8.688-27.331-9.771-11.308-26.267-18.905-41.05-18.905v15c10.344 0 22.834 5.767 29.7 13.712 4.225 4.89 5.974 10.054 5.197 15.349l-9.895 67.482 14.841 2.176z"/><path d="m277.859 309.15h14.998v14.999h-14.998z" transform="matrix(.145 -.989 .989 .145 -69.337 553.057)"/><path d="m190.957 98.997-20.462-25.073c-11.515-14.109-12.032-26.404-8.676-33.206 2.397-4.858 6.774-7.57 12.033-7.395 10.643.323 21.588 11.45 29.278 29.763l27.495 65.478.786 8.857 14.941-1.326-7.173-80.831c-1.655-18.65-.021-30.81 4.859-36.142 1.62-1.77 4.643-4.122 12.161-4.122s10.541 2.353 12.161 4.122c4.88 5.332 6.515 17.492 4.859 36.142l-7.174 80.831 14.941 1.326.786-8.856 27.495-65.479c9.916-23.613 23.143-30.725 31.457-29.655 6.085.789 10.481 5.662 11.473 12.716l14.854-2.088c-1.942-13.822-11.519-23.833-24.397-25.503-6.884-.892-30.644-.741-47.216 38.724l-9.305 22.16 2.028-22.85c2.129-23.988-.565-38.667-8.735-47.595-5.464-5.969-13.278-8.995-23.227-8.995s-17.764 3.026-23.226 8.995c-8.17 8.928-10.864 23.606-8.735 47.595l2.028 22.849-9.305-22.16c-14.454-34.423-34.643-38.706-42.652-38.949-11.036-.345-20.981 5.699-25.94 15.751-7.019 14.226-3.091 32.665 10.506 49.327l20.462 25.073z"/><path d="m197.362 111.715h15v32.362h-15z" transform="matrix(.775 -.632 .632 .775 -34.719 158.34)"/><path d="m341.902 73.924-50.409 61.767 11.621 9.484 50.409-61.767c5.624-6.891 9.607-14.039 11.84-21.246l-14.328-4.439c-1.659 5.359-4.732 10.809-9.133 16.201z"/></g></svg>