<svg xmlns="http://www.w3.org/2000/svg" width="120.513" height="120.515" viewBox="0 0 120.513 120.515">
  <g id="Instagram_Gray" data-name="Instagram Gray" transform="translate(-1296.637 -232.666)">
    <path id="패스_3" data-name="패스 3" d="M1356.893,243.479a184.454,184.454,0,0,1,24.053.669,30.975,30.975,0,0,1,11.357,2.007,23.464,23.464,0,0,1,11.357,11.357,30.975,30.975,0,0,1,2.007,11.357c0,6.014.669,8.02.669,24.053a184.3,184.3,0,0,1-.669,24.052,30.971,30.971,0,0,1-2.007,11.357,23.466,23.466,0,0,1-11.357,11.358,31.016,31.016,0,0,1-11.357,2.007c-6.013,0-8.02.669-24.053.669a184.451,184.451,0,0,1-24.052-.669,31.016,31.016,0,0,1-11.357-2.007,23.466,23.466,0,0,1-11.357-11.358,30.974,30.974,0,0,1-2.007-11.357c0-6.013-.669-8.02-.669-24.052a184.29,184.29,0,0,1,.669-24.053,30.978,30.978,0,0,1,2.007-11.357,23.959,23.959,0,0,1,4.675-6.682,11.276,11.276,0,0,1,6.682-4.675,30.975,30.975,0,0,1,11.357-2.007,184.443,184.443,0,0,1,24.052-.669m0-10.688a197.274,197.274,0,0,0-24.721.669,41.249,41.249,0,0,0-14.694,2.668,28.063,28.063,0,0,0-17.378,17.378,30.447,30.447,0,0,0-2.669,14.694,197.677,197.677,0,0,0-.669,24.722,197.662,197.662,0,0,0,.669,24.721,41.273,41.273,0,0,0,2.676,14.7,28.041,28.041,0,0,0,17.371,17.371,41.247,41.247,0,0,0,14.7,2.675,197.342,197.342,0,0,0,24.713.662,197.491,197.491,0,0,0,24.722-.669,41.253,41.253,0,0,0,14.7-2.676,28.027,28.027,0,0,0,17.37-17.37,41.235,41.235,0,0,0,2.676-14.7c-.007-6.675.662-8.682.662-24.714a197.677,197.677,0,0,0-.669-24.722,41.28,41.28,0,0,0-2.676-14.7,28.043,28.043,0,0,0-17.371-17.37,41.249,41.249,0,0,0-14.694-2.668,197.291,197.291,0,0,0-24.722-.669m0,29.4a30.238,30.238,0,0,0-30.734,29.734c-.006.334-.006.667,0,1a30.734,30.734,0,1,0,30.734-30.735h0m0,50.781a19.685,19.685,0,0,1-20.046-19.318c0-.243,0-.485,0-.728a19.685,19.685,0,0,1,19.318-20.046q.364-.008.728,0a19.685,19.685,0,0,1,20.047,19.318q.006.363,0,.728a19.685,19.685,0,0,1-19.318,20.046q-.364.008-.729,0m32.073-59.462a7.351,7.351,0,1,0,7.351,7.351h0a7.412,7.412,0,0,0-7.351-7.351" fill="#fff" fill-rule="evenodd"/>
  </g>
</svg>
