<svg xmlns="http://www.w3.org/2000/svg" width="53.8" height="55.298" viewBox="0 0 53.8 55.298">
  <g id="그룹_377" data-name="그룹 377" transform="translate(-501.77 359.739)">
    <path id="패스_861" data-name="패스 861" d="M546.65-358.842c-13-1.912-30.13-.729-34.747,3.159s-6.561,13.121-6.317,24.3-1.215,26.242,12.878,26.728,30.373.243,33.775-1.7,5.1-8.019,5.345-24.785S554.911-357.627,546.65-358.842Z" transform="translate(-2.028)" fill="#f0a0b1"/>
    <g id="그룹_376" data-name="그룹 376" transform="translate(524.077 -333.551)">
      <path id="패스_862" data-name="패스 862" d="M559.35-301.378a4.319,4.319,0,0,0-.368-.8,3.181,3.181,0,0,0-.907-.93,3.01,3.01,0,0,0-2.342-.3,6.919,6.919,0,0,0-1.531.52,2.621,2.621,0,0,0-1.433,1.666,3.244,3.244,0,0,0,.189,1.927,7.636,7.636,0,0,0,.617,1.433,4.414,4.414,0,0,0,1.352,1.42,1.9,1.9,0,0,0,1.442.189,1.908,1.908,0,0,0,1.118-.86c.008-.016.014-.034.022-.051a6.177,6.177,0,0,0,.928-.482,2.616,2.616,0,0,0,.908-.959,2.68,2.68,0,0,0,.309-1.37A4.561,4.561,0,0,0,559.35-301.378Z" transform="translate(-551.283 303.508)" fill="#fff"/>
      <path id="패스_863" data-name="패스 863" d="M558.213-300.629a1.122,1.122,0,0,0-1.588.021l-2.515,2.582-2.515-2.582a1.123,1.123,0,0,0-1.588-.021,1.122,1.122,0,0,0-.021,1.587l3,3.081v2.289a1.123,1.123,0,0,0,1.123,1.123,1.122,1.122,0,0,0,1.122-1.123v-2.289l3-3.081A1.122,1.122,0,0,0,558.213-300.629Z" transform="translate(-549.668 302.14)" fill="#565656"/>
    </g>
    <path id="패스_864" data-name="패스 864" d="M527.135-304.648a96.552,96.552,0,0,1-10.894-.541c-12.284-1.446-14.471-8.981-14.471-29.482,0-20.537,4.3-22.729,10.385-23.583,3.513-.495,15.7-.09,16.22-.072a.978.978,0,0,1,.945,1.01.979.979,0,0,1-1.01.944c-.126,0-12.535-.416-15.883.054-4.474.63-8.7,1.224-8.7,21.647,0,20.929,2.5,26.334,12.743,27.539,11.124,1.308,28.008-.055,30.948-1.233l.228-.09c2.841-1.13,4.894-1.946,5.314-14.908l.06-1.84c.485-14.769.778-23.684-3.42-27.746-2.725-2.636-7.506-3.524-15.987-2.964a.977.977,0,0,1-1.04-.912.978.978,0,0,1,.912-1.04c9.083-.6,14.313.451,17.475,3.511,4.822,4.666,4.518,13.907,4.015,29.216l-.06,1.84c-.439,13.554-2.773,15.162-6.546,16.661l-.224.09C545.653-305.552,536.278-304.648,527.135-304.648Z" transform="translate(0 -0.663)" fill="#565656"/>
    <path id="패스_865" data-name="패스 865" d="M544.518-301.927a14.57,14.57,0,0,1-3.593-.437A11.306,11.306,0,0,1,533.064-309a13.505,13.505,0,0,1,.323-11.217,15.943,15.943,0,0,1,9.536-8.412h0a10.388,10.388,0,0,1,8.729,1.334,15.4,15.4,0,0,1,6.6,9.667c.747,5.042-2.633,10.633-6.359,13.549A12.393,12.393,0,0,1,544.518-301.927ZM543.2-327.686l.274.938a13.937,13.937,0,0,0-8.314,7.37,11.572,11.572,0,0,0-.294,9.611,9.411,9.411,0,0,0,6.549,5.507c3.692.948,7.539.009,9.282-1.356,3.763-2.945,6.183-7.985,5.629-11.722a13.693,13.693,0,0,0-5.725-8.307,8.379,8.379,0,0,0-7.126-1.1Z" transform="translate(-16.15 -16.395)" fill="#565656"/>
    <circle id="타원_13" data-name="타원 13" cx="2.673" cy="2.673" r="2.673" transform="translate(541.139 -348.94)" fill="#565656"/>
  </g>
</svg>
