<svg xmlns="http://www.w3.org/2000/svg"  viewBox="0 0 120.513 120.515">
  <g id="그룹_369" data-name="그룹 369" transform="translate(-1162.361 -242.514)">
    <path id="패스_851" data-name="패스 851" d="M1260.087,299.753c0-16.767-16.809-30.407-37.47-30.407s-37.47,13.64-37.47,30.407c0,15.031,13.33,27.619,31.337,30,1.22.264,2.881.8,3.3,1.848a7.7,7.7,0,0,1,.121,3.388s-.439,2.644-.535,3.208c-.163.947-.753,3.7,3.246,2.02s21.578-12.706,29.44-21.755h0C1257.485,312.506,1260.087,306.463,1260.087,299.753ZM1209.4,308.7a.729.729,0,0,1-.729.73h-10.5a.724.724,0,0,1-.5-.2l-.011-.01-.01-.011a.726.726,0,0,1-.2-.5V292.38a.73.73,0,0,1,.73-.73h2.629a.73.73,0,0,1,.729.73v12.966h7.141a.729.729,0,0,1,.729.73Zm6.337,0a.729.729,0,0,1-.73.728h-2.629a.73.73,0,0,1-.73-.728V292.379a.73.73,0,0,1,.73-.728H1215a.729.729,0,0,1,.73.728Zm18.09,0a.729.729,0,0,1-.73.728h-2.628a.715.715,0,0,1-.187-.025l-.01,0-.05-.016-.022-.009-.035-.014-.035-.017-.021-.012c-.015-.008-.03-.017-.045-.027l-.008-.006a.734.734,0,0,1-.185-.18l-7.491-10.117v9.7a.729.729,0,0,1-.73.728h-2.628a.729.729,0,0,1-.73-.728V292.379a.729.729,0,0,1,.73-.728h2.653l.038,0,.038.005.031,0,.042.01.026.006.043.014.023.009a.406.406,0,0,1,.042.017l.023.012.04.021.021.013.038.026.019.015a.418.418,0,0,1,.039.033l.014.012c.015.014.029.029.044.045l0,.005a.8.8,0,0,1,.057.074l7.482,10.1v-9.7a.729.729,0,0,1,.73-.728h2.628a.729.729,0,0,1,.73.728Zm14.513-13.7a.729.729,0,0,1-.729.73h-7.141V298.5h7.141a.73.73,0,0,1,.729.731v2.627a.729.729,0,0,1-.729.73h-7.141v2.76h7.141a.729.729,0,0,1,.729.73V308.7a.729.729,0,0,1-.729.729h-10.5a.724.724,0,0,1-.5-.2l-.011-.009-.01-.011a.724.724,0,0,1-.2-.5h0V292.381h0a.731.731,0,0,1,.2-.5l.012-.013.008-.008a.728.728,0,0,1,.507-.2h10.5a.729.729,0,0,1,.729.73Z" fill="#fff"/>
    <path id="패스_852" data-name="패스 852" d="M1282.079,278.049a41.231,41.231,0,0,0-2.676-14.7,28.043,28.043,0,0,0-17.37-17.371,41.255,41.255,0,0,0-14.695-2.668,197.467,197.467,0,0,0-24.721-.669,197.466,197.466,0,0,0-24.721.669,41.255,41.255,0,0,0-14.695,2.668,28.069,28.069,0,0,0-17.378,17.378,30.437,30.437,0,0,0-2.668,14.7,197.289,197.289,0,0,0-.669,24.721,197.289,197.289,0,0,0,.669,24.721,41.227,41.227,0,0,0,2.676,14.7,28.042,28.042,0,0,0,17.37,17.371,41.274,41.274,0,0,0,14.7,2.676,197.541,197.541,0,0,0,24.714.661,197.278,197.278,0,0,0,24.721-.669,41.227,41.227,0,0,0,14.7-2.676,28.027,28.027,0,0,0,17.371-17.37,41.276,41.276,0,0,0,2.676-14.7c-.008-6.675.661-8.682.661-24.714A197.289,197.289,0,0,0,1282.079,278.049Zm-10.688,48.774a31,31,0,0,1-2.007,11.357,23.464,23.464,0,0,1-11.357,11.357,31,31,0,0,1-11.358,2.007c-6.013,0-8.02.669-24.052.669a184.446,184.446,0,0,1-24.052-.669,31,31,0,0,1-11.358-2.007,23.468,23.468,0,0,1-11.357-11.357,31,31,0,0,1-2.007-11.357c0-6.014-.669-8.021-.669-24.053a184.467,184.467,0,0,1,.669-24.052,31,31,0,0,1,2.007-11.358,24.029,24.029,0,0,1,4.675-6.682,11.278,11.278,0,0,1,6.682-4.675A31,31,0,0,1,1198.565,254a184.446,184.446,0,0,1,24.052-.669,184.44,184.44,0,0,1,24.052.669A31,31,0,0,1,1258.027,256a23.468,23.468,0,0,1,11.357,11.357,31,31,0,0,1,2.007,11.358c0,6.013.669,8.02.669,24.052A184.482,184.482,0,0,1,1271.391,326.823Z" fill="#fff" fill-rule="evenodd"/>
  </g>
</svg>
