<svg xmlns="http://www.w3.org/2000/svg" width="53.872" height="55.123" viewBox="0 0 53.872 55.123">
  <g id="그룹_362" data-name="그룹 362" transform="translate(-808.926 -3626.877)">
    <path id="패스_847" data-name="패스 847" d="M11.2,0H40.494a11.2,11.2,0,0,1,11.2,11.2V40.494a11.2,11.2,0,0,1-11.2,11.2H11.2A11.2,11.2,0,0,1,0,40.494V11.2A11.2,11.2,0,0,1,11.2,0Z" transform="translate(811.104 3628.936)" fill="#00b900"/>
    <g id="그룹_361" data-name="그룹 361" transform="translate(818.87 3637.049)">
      <path id="패스_840" data-name="패스 840" d="M743.734-321.473c0-8.422-8.443-15.274-18.821-15.274s-18.821,6.852-18.821,15.274c0,7.55,6.7,13.873,15.74,15.069.613.132,1.447.4,1.658.928a3.861,3.861,0,0,1,.061,1.7s-.221,1.328-.268,1.612c-.082.476-.378,1.861,1.63,1.014s10.839-6.382,14.788-10.928h0c2.728-2.991,4.034-6.027,4.034-9.4" transform="translate(-706.092 336.747)" fill="#fff"/>
      <g id="그룹_360" data-name="그룹 360" transform="translate(6.174 11.204)">
        <path id="패스_841" data-name="패스 841" d="M738.676-310.739h-1.32a.367.367,0,0,0-.367.366v8.2a.366.366,0,0,0,.367.366h1.32a.366.366,0,0,0,.367-.366v-8.2a.366.366,0,0,0-.367-.366" transform="translate(-729.853 310.739)" fill="#00b900"/>
        <path id="패스_842" data-name="패스 842" d="M752.173-310.739h-1.32a.367.367,0,0,0-.367.366v4.872l-3.759-5.076a.392.392,0,0,0-.028-.037l0,0-.022-.023-.007-.006-.02-.016-.009-.007-.019-.013-.011-.006-.02-.011-.012-.006-.021-.009-.012,0-.022-.007-.013,0-.021,0-.016,0-.019,0H745.1a.366.366,0,0,0-.367.366v8.2a.366.366,0,0,0,.367.366h1.32a.366.366,0,0,0,.367-.366v-4.87l3.763,5.082a.354.354,0,0,0,.093.09l0,0,.022.014.01.006.018.009.018.007.011,0,.025.008h.005a.353.353,0,0,0,.094.013h1.32a.366.366,0,0,0,.367-.366v-8.2a.366.366,0,0,0-.367-.366" transform="translate(-734.263 310.739)" fill="#00b900"/>
        <path id="패스_843" data-name="패스 843" d="M726.065-303.859h-3.587v-6.513a.367.367,0,0,0-.367-.367h-1.32a.367.367,0,0,0-.367.367v8.2h0a.365.365,0,0,0,.1.253l.005.006.006.005a.365.365,0,0,0,.253.1h5.275a.367.367,0,0,0,.366-.367v-1.32a.366.366,0,0,0-.366-.367" transform="translate(-720.424 310.739)" fill="#00b900"/>
        <path id="패스_844" data-name="패스 844" d="M771.47-308.685a.366.366,0,0,0,.366-.367v-1.32a.367.367,0,0,0-.366-.367H766.2a.366.366,0,0,0-.254.1l0,0-.006.006a.365.365,0,0,0-.1.253h0v8.2h0a.364.364,0,0,0,.1.253l0,.006.006,0a.363.363,0,0,0,.253.1h5.274a.366.366,0,0,0,.366-.367v-1.32a.366.366,0,0,0-.366-.367h-3.587v-1.386h3.587a.366.366,0,0,0,.366-.367v-1.32a.366.366,0,0,0-.366-.367h-3.587v-1.386Z" transform="translate(-746.27 310.739)" fill="#00b900"/>
      </g>
    </g>
    <path id="패스_845" data-name="패스 845" d="M720.123-305.236c-3.182,0-6.4-.159-9.295-.3a79.384,79.384,0,0,0-8.49-.166l-.631.05c-3.878.314-9.735.787-13.859-2.967-2.885-2.625-4.387-6.934-4.465-12.806a.9.9,0,0,1,.893-.917.894.894,0,0,1,.917.892c.072,5.352,1.375,9.218,3.874,11.493,3.543,3.224,8.93,2.79,12.5,2.5l.637-.051a79.9,79.9,0,0,1,8.719.162c6.171.305,13.851.685,19.237-.59,5.189-1.229,5.12-5.358,4.47-14.583-.239-3.382-.51-7.215-.446-11.521.222-15.094-.635-16.943-3.644-21.026-2.265-3.074-8.6-3.162-18.192-3.3-2.359-.033-5.034-.07-7.854-.159-14.942-.467-18.06,4.778-19.1,8.764-.894,3.426-.548,9.778-.242,15.382.139,2.549.271,4.956.271,6.866a.9.9,0,0,1-.9.9.9.9,0,0,1-.9-.9c0-1.861-.13-4.244-.268-6.767-.314-5.736-.668-12.237.3-15.937,1.9-7.288,8.548-10.5,20.907-10.116,2.805.088,5.471.125,7.823.158,10.132.141,16.825.234,19.623,4.031,3.22,4.369,4.227,6.5,4,22.127-.062,4.229.205,8.021.442,11.367.607,8.613,1.047,14.835-5.857,16.471A47.122,47.122,0,0,1,720.123-305.236Z" transform="translate(125.917 3987.236)" fill="#565656"/>
    <path id="패스_846" data-name="패스 846" d="M718.114-302.537a1.128,1.128,0,0,1-.893-.414c-.43-.529-.285-1.226-.1-2.108.125-.6.334-1.6.118-1.942-.2-.312-.995-.523-2-.791a25.571,25.571,0,0,1-5.514-2.035c-2.728-1.4-8.743-6.332-9.927-12.651a11.36,11.36,0,0,1,3.033-9.995c7.671-8.63,15.859-10.855,24.343-6.613,6.918,3.459,14.071,7.036,11.831,17.739C736.918-311.387,719.347-302.537,718.114-302.537Zm.636-1.291h0Zm.132-35.551c-5.029,0-9.886,2.691-14.7,8.107a9.633,9.633,0,0,0-2.607,8.459c1.049,5.605,6.6,10.158,8.974,11.375a23.964,23.964,0,0,0,5.153,1.9c1.443.384,2.486.661,3.064,1.569a4.409,4.409,0,0,1,.139,3.222c3.783-1.819,16.67-9.049,18.328-16.969,1.823-8.709-2.89-11.76-10.869-15.75A16.641,16.641,0,0,0,718.882-339.379Z" transform="translate(116.476 3976.317)" fill="#565656"/>
  </g>
</svg>
