<svg xmlns="http://www.w3.org/2000/svg" width="205.178" height="72.22" viewBox="0 0 205.178 72.22"><g transform="translate(-1889 -3404)"><path d="M27.5,53.8a5.359,5.359,0,0,0-.5-1.1,4.561,4.561,0,0,0-1.2-1.2,4.191,4.191,0,0,0-3.1-.4,6.789,6.789,0,0,0-2,.7,3.37,3.37,0,0,0-2,2.2,4.689,4.689,0,0,0,.3,2.6,10.837,10.837,0,0,0,.8,1.9,6.558,6.558,0,0,0,1.8,1.9,2.516,2.516,0,0,0,1.9.3A2.827,2.827,0,0,0,25,59.6v-.1a13.393,13.393,0,0,0,1.2-.6,3.039,3.039,0,0,0,1.2-1.3,2.972,2.972,0,0,0,.4-1.8A4.433,4.433,0,0,0,27.5,53.8Z" transform="translate(1889 3404.008)" fill="#f0a0b1"/><g transform="translate(1889 3404.008)"><path d="M83.1,26.8c-2-5.3-4.1-10.7-5.5-15.3-1.5,4.7-3.3,9.6-5.5,15.3L58.3,62.2a1.911,1.911,0,0,1-2.7,1,1.784,1.784,0,0,1-1.1-2.5L75,8.5a2.583,2.583,0,0,1,2.5-1.6A2.417,2.417,0,0,1,80,8.5l23.6,61a1.768,1.768,0,0,1-1.2,2.5c-1.3.5-2.3.1-2.7-1Z" fill="#fff"/><path d="M152.6,38.1v29c0,3.5-1.4,4.8-3.5,4.8-1.5,0-2.3-.5-3.5-2.5L114.2,16.9a42.1,42.1,0,0,1-2.5-5.2V37.9c0,1.2-1,1.6-2.1,1.6-1,0-2-.5-2-1.6V11.8c0-3.5,1.4-4.8,3.5-4.8,1.5,0,2.3.5,3.5,2.5L145.9,62a42.1,42.1,0,0,1,2.5,5.2V38.1c0-1.2,1-1.6,2-1.6C151.6,36.4,152.6,36.9,152.6,38.1Z" fill="#fff"/><path d="M190.4,26.8c-2-5.3-4.1-10.7-5.5-15.3-1.5,4.7-3.3,9.6-5.5,15.3L162.3,70.9a1.911,1.911,0,0,1-2.7,1,1.784,1.784,0,0,1-1.1-2.5l23.8-61a2.583,2.583,0,0,1,2.5-1.6,2.417,2.417,0,0,1,2.5,1.6L205,53.8a1.768,1.768,0,0,1-1.2,2.5c-1.3.5-2.3.1-2.7-1Z" fill="#fff"/><path d="M43,24.4c-1,0-2,.5-2,1.6V36H4.2V24C4.3,19.4,5.5,4.7,15.4,4.2a2.05,2.05,0,0,0,2-2.2,2.108,2.108,0,0,0-2.2-2C1.1.7,0,19.8,0,24.5H0v46c0,1.2,1,1.6,2,1.6,1.2,0,2.2-.5,2.2-1.6V39.7H41V70.5c0,1.2,1,1.6,2,1.6,1.2,0,2.2-.5,2.2-1.6V26C45.2,24.8,44.2,24.4,43,24.4Z" fill="#fff"/><circle cx="5.8" cy="5.8" r="5.8" transform="translate(179 45.4)" fill="#fff"/><path d="M28.1,53A1.45,1.45,0,0,0,26,53l-3.4,3.4L19.3,53a1.485,1.485,0,0,0-2.1,2.1l4,4.1v3.1a1.5,1.5,0,0,0,3,0V59.2l4-4.1A1.547,1.547,0,0,0,28.1,53Z" fill="#fff"/><circle cx="1.5" cy="1.5" r="1.5" transform="translate(7.7 45.7)" fill="#fff"/><circle cx="1.5" cy="1.5" r="1.5" transform="translate(34.5 45.7)" fill="#fff"/></g></g></svg>