<svg xmlns="http://www.w3.org/2000/svg" width="205.2929" height="98.1982" viewBox="0 0 205.2929 98.1982"><path d="M311.6908,330.2328a5.8136,5.8136,0,0,0-.4918-1.0676,4.2435,4.2435,0,0,0-1.2118-1.2425,4.02,4.02,0,0,0-3.1286-.4039,9.2636,9.2636,0,0,0-2.0454.694,3.504,3.504,0,0,0-1.9144,2.2258,4.3384,4.3384,0,0,0,.2524,2.5748,10.23,10.23,0,0,0,.8246,1.9137,5.8932,5.8932,0,0,0,1.8059,1.8964,2.5,2.5,0,0,0,3.42-.8968c.0115-.0216.0185-.0459.03-.0678a8.2245,8.2245,0,0,0,1.2392-.645,3.4964,3.4964,0,0,0,1.2137-1.2817,3.5851,3.5851,0,0,0,.4129-1.83A6.1074,6.1074,0,0,0,311.6908,330.2328Z" transform="translate(-284.2065 -276.4225)" fill="#f0a0b1"/><path d="M367.2778,303.1839c-2.002-5.2774-4.0947-10.7368-5.55-15.2866-1.4561,4.7314-3.2754,9.646-5.46,15.2866l-13.7218,35.4693a1.9455,1.9455,0,0,1-2.7295,1,1.7054,1.7054,0,0,1-1.0918-2.4561L359.18,284.8953a2.8,2.8,0,0,1,5.0947,0l23.5665,60.9624a1.7439,1.7439,0,0,1-1.1827,2.4561,1.945,1.945,0,0,1-2.7295-1Z" transform="translate(-284.2065 -276.4225)" fill="#fff"/><path d="M436.7944,314.5083v28.9832c0,3.5488-1.3653,4.8223-3.5488,4.8223-1.4561,0-2.2745-.5459-3.4571-2.4561l-31.3916-52.5005a39.598,39.598,0,0,1-2.5478-5.1865v26.1926c0,1.1826-1,1.6377-2.0928,1.6377-1,0-2.001-.4551-2.001-1.6377V288.2615c0-3.5488,1.3643-4.8222,3.5479-4.8222,1.456,0,2.2754.5459,3.458,2.457l31.3906,52.5a39.2369,39.2369,0,0,1,2.5479,5.1865v-29.075c0-1.1836,1.0009-1.6377,2.0019-1.6377C435.7934,312.8706,436.7944,313.3247,436.7944,314.5083Z" transform="translate(-284.2065 -276.4225)" fill="#fff"/><path d="M474.6015,303.1839c-2.002-5.2774-4.0947-10.7368-5.55-15.2866-1.4561,4.7314-3.2754,9.646-5.46,15.2866l-17.1054,44.13a1.9456,1.9456,0,0,1-2.73,1,1.7055,1.7055,0,0,1-1.0918-2.4561l23.8388-60.9624a2.8,2.8,0,0,1,5.0948,0l17.74,45.3666a1.7436,1.7436,0,0,1-1.1826,2.456,1.9449,1.9449,0,0,1-2.7295-1Z" transform="translate(-284.2065 -276.4225)" fill="#fff"/><path d="M327.2436,300.7981c-1.001,0-2.0019.4541-2.0019,1.6377v9.9385h-36.85V300.43c.1225-4.5589,1.291-19.3121,11.2467-19.81a2.1,2.1,0,0,0-.21-4.1943c-14.1556.7074-15.18,19.7945-15.2181,24.4647l-.0043.0019v45.9664c0,1.1826,1.001,1.6376,2.001,1.6376,1.1836,0,2.1846-.455,2.1846-1.6376v-30.754h36.85v30.754c0,1.1826,1.0009,1.6376,2.0019,1.6376,1.1826,0,2.1836-.455,2.1836-1.6376V302.4358C329.4272,301.2522,328.4262,300.7981,327.2436,300.7981Z" transform="translate(-284.2065 -276.4225)" fill="#fff"/><circle cx="184.8053" cy="51.2306" r="5.8261" fill="#fff"/><path d="M312.3282,329.4057a1.4991,1.4991,0,0,0-2.1211.0283l-3.36,3.45-3.36-3.45a1.5,1.5,0,0,0-2.1494,2.0927l4.0093,4.1166v3.0578a1.5,1.5,0,0,0,3,0v-3.0578l4.0093-4.1166A1.5,1.5,0,0,0,312.3282,329.4057Z" transform="translate(-284.2065 -276.4225)" fill="#fff"/><circle cx="9.249" cy="47.2306" r="1.5217" fill="#fff"/><circle cx="35.9881" cy="47.2306" r="1.5217" fill="#fff"/><path d="M329.0715,365.984v.2949a2.9047,2.9047,0,0,1-2.1963,2.999l2.2783,4.4581a.4972.4972,0,0,1-.2622.7373.538.538,0,0,1-.7866-.2129l-2.3931-4.7852a4.9963,4.9963,0,0,1-.7045.0488h-2.4908v4.54c0,.3437-.2788.4912-.6064.4912-.3115,0-.59-.1475-.59-.4912V363.92c0-.8193.2784-1.082,1.0977-1.082h2.7861C327.5964,362.8375,329.0715,363.8541,329.0715,365.984Zm-4.0972,2.4912c2.0157,0,2.9009-.77,2.9009-2.2285v-.2129c0-1.4424-.8852-2.1475-2.7534-2.1475h-2.6055v4.5889Z" transform="translate(-284.2065 -276.4225)" fill="#fff"/><path d="M341.2986,368.6227v5.4736c0,.3281-.2784.459-.5572.459s-.5571-.1309-.5571-.459v-.8027h-.0161a2.2,2.2,0,0,1-.9341.9179,3.7452,3.7452,0,0,1-1.7866.4092c-1.8027,0-2.9331-.9336-2.9331-2.5234v-.1641c0-1.3926.9013-2.458,3.13-2.458h2.4746v-.6064c0-1.377-.6392-2.0323-2.0811-2.0323a4.2057,4.2057,0,0,0-2.2944.7051.4772.4772,0,0,1-.6885-.1806.4934.4934,0,0,1,.1314-.7051,5.2751,5.2751,0,0,1,2.8842-.8516C340.07,365.8043,341.2986,366.8854,341.2986,368.6227Zm-5.6206,3.3437v.0977c0,.9511.6552,1.541,1.8515,1.541a3.357,3.357,0,0,0,1.59-.3281,1.79,1.79,0,0,0,1.0161-1.6221v-1.2295H337.677C336.2185,370.4254,335.678,371.0807,335.678,371.9664Z" transform="translate(-284.2065 -276.4225)" fill="#fff"/><path d="M348.4949,362.8541v4.3594a3.0572,3.0572,0,0,1,2.6879-1.4092c2.2613,0,3.4248,1.3926,3.4248,4.0645v.6875c0,2.7207-1.3764,4.0644-3.5234,4.0644a2.9974,2.9974,0,0,1-2.6055-1.2451h-.0327v.7041a.4964.4964,0,0,1-.5571.4756c-.2954,0-.5737-.1475-.5737-.4756V362.8541c0-.3437.2949-.4912.59-.4912C348.2165,362.3629,348.4949,362.51,348.4949,362.8541Zm-.0162,6.457v2.2618a2.3013,2.3013,0,0,0,2.54,2.0156c1.4912,0,2.4253-.95,2.4253-3.1143v-.54c0-2.0977-.77-3.0977-2.4414-3.0977A2.46,2.46,0,0,0,348.4787,369.3111Z" transform="translate(-284.2065 -276.4225)" fill="#fff"/><path d="M361.4763,362.8541v4.3594a3.0574,3.0574,0,0,1,2.688-1.4092c2.2612,0,3.4248,1.3926,3.4248,4.0645v.6875c0,2.7207-1.3765,4.0644-3.5234,4.0644a2.9974,2.9974,0,0,1-2.6055-1.2451h-.0327v.7041a.4964.4964,0,0,1-.5572.4756c-.2954,0-.5737-.1475-.5737-.4756V362.8541c0-.3437.2949-.4912.59-.4912C361.198,362.3629,361.4763,362.51,361.4763,362.8541Zm-.0161,6.457v2.2618a2.3012,2.3012,0,0,0,2.54,2.0156c1.4912,0,2.4253-.95,2.4253-3.1143v-.54c0-2.0977-.77-3.0977-2.4414-3.0977A2.46,2.46,0,0,0,361.46,369.3111Z" transform="translate(-284.2065 -276.4225)" fill="#fff"/><path d="M374.7693,363.6568a.8688.8688,0,1,1-.8687-.8515A.847.847,0,0,1,374.7693,363.6568Zm-.2784,2.754v7.6533c0,.3437-.2788.4912-.59.4912-.2949,0-.59-.1475-.59-.4912v-7.6533c0-.3448.2949-.4922.59-.4922C374.2121,365.9186,374.4909,366.066,374.4909,366.4108Z" transform="translate(-284.2065 -276.4225)" fill="#fff"/><path d="M382.3738,364.1324v1.8516h2.0815c.2622,0,.3931.2139.3931.4756,0,.2783-.1309.4912-.3931.4912h-2.0815v5.0156c0,1.2617.2954,1.6387,1.1962,1.6387a2.0886,2.0886,0,0,0,.8526-.1641.44.44,0,0,1,.59.295.4993.4993,0,0,1-.2622.6552,3.073,3.073,0,0,1-1.2456.2295c-1.5732,0-2.31-.6719-2.31-2.5566v-5.1133h-1.147c-.2788,0-.41-.2129-.41-.4912,0-.2617.1309-.4756.41-.4756h1.147v-1.8516c0-.3437.2783-.4912.5737-.4912C382.0788,363.6412,382.3738,363.7887,382.3738,364.1324Z" transform="translate(-284.2065 -276.4225)" fill="#fff"/><path d="M403.2058,366.59a.3226.3226,0,0,1,.0986.459.31.31,0,0,1-.4424.1309,4.4492,4.4492,0,0,0-2.393-.6221c-1.54,0-2.2779.6553-2.2779,1.5235v.05c0,.8847.59,1.31,2.4419,1.6552,2.3272.4258,3.0484.9668,3.0484,2.4248v.1319c0,1.2939-1.1963,2.2773-3.1792,2.2773a5.5388,5.5388,0,0,1-3.0157-.8681.3334.3334,0,0,1-.0981-.4756.3209.3209,0,0,1,.4917-.0987,4.8814,4.8814,0,0,0,2.6382.7871c1.5571,0,2.458-.705,2.458-1.6552v-.0489c0-1.0654-.3765-1.41-2.6709-1.8359-1.8521-.3437-2.8189-.9668-2.8189-2.2285v-.1309c0-1.1806.9668-2.164,3.0484-2.164A5.1317,5.1317,0,0,1,403.2058,366.59Z" transform="translate(-284.2065 -276.4225)" fill="#fff"/><path d="M410.4509,363.7067a.6557.6557,0,1,1-.6553-.64A.6331.6331,0,0,1,410.4509,363.7067Zm-.2783,2.622v7.9151c0,.2129-.18.2949-.377.2949-.18,0-.3608-.082-.3608-.2949v-7.9151c0-.2129.1807-.2949.3608-.2949C409.9924,366.0338,410.1726,366.1158,410.1726,366.3287Z" transform="translate(-284.2065 -276.4225)" fill="#fff"/><path d="M417.7615,364.067v2.0156h2.2612c.164,0,.2461.1309.2461.295,0,.1806-.0821.3115-.2461.3115h-2.2612v5.3584c0,1.5244.3276,1.9345,1.4091,1.9345a2.122,2.122,0,0,0,.8848-.1806.2965.2965,0,0,1,.4263.164.3133.3133,0,0,1-.18.4424,2.8136,2.8136,0,0,1-1.1475.2129c-1.3925,0-2.13-.5078-2.13-2.3926v-5.539h-1.3111c-.1636,0-.2456-.1309-.2456-.3115,0-.1641.082-.295.2456-.295h1.3111V364.067c0-.2129.18-.2949.3608-.2949C417.5808,363.7721,417.7615,363.8541,417.7615,364.067Z" transform="translate(-284.2065 -276.4225)" fill="#fff"/><path d="M427.2351,364.067v2.0156h2.2612c.1641,0,.2461.1309.2461.295,0,.1806-.082.3115-.2461.3115h-2.2612v5.3584c0,1.5244.3276,1.9345,1.4092,1.9345a2.1219,2.1219,0,0,0,.8847-.1806.2964.2964,0,0,1,.4263.164.3133.3133,0,0,1-.18.4424,2.8134,2.8134,0,0,1-1.1474.2129c-1.3926,0-2.13-.5078-2.13-2.3926v-5.539h-1.311c-.1636,0-.2456-.1309-.2456-.3115,0-.1641.082-.295.2456-.295h1.311V364.067c0-.2129.18-.2949.3608-.2949C427.0544,363.7721,427.2351,363.8541,427.2351,364.067Z" transform="translate(-284.2065 -276.4225)" fill="#fff"/><path d="M442.0344,369.77v.0323c0,.4433-.2129.6718-.7207.6718h-5.523v.1153c0,2.3271,1.1143,3.3759,2.9009,3.3759a4.4529,4.4529,0,0,0,2.5562-.705.3094.3094,0,0,1,.4756.082.3337.3337,0,0,1-.0987.4756,5.3343,5.3343,0,0,1-2.9824.8027c-2.18,0-3.5889-1.3271-3.5889-3.9492v-.8193c0-2.6221,1.4092-3.95,3.5069-3.95C440.74,365.902,442.0344,367.3277,442.0344,369.77Zm-6.2437,0v.0821h5.5064v-.1153c0-2.081-1.0654-3.1787-2.7368-3.1787C436.905,366.5582,435.7907,367.6891,435.7907,369.77Z" transform="translate(-284.2065 -276.4225)" fill="#fff"/><path d="M452.1809,366.05a.3206.3206,0,0,1,.18.4424.3251.3251,0,0,1-.41.2451,3.1272,3.1272,0,0,0-.8359-.1143c-1.6226,0-2.4581,1.3926-2.4581,3.2608v4.3594c0,.2129-.1806.2949-.3769.2949-.18,0-.3608-.082-.3608-.2949v-7.9151c0-.2129.1806-.2949.3608-.2949s.36.082.36.2949v1.4424h.0166a2.6135,2.6135,0,0,1,2.5235-1.8691A3.1244,3.1244,0,0,1,452.1809,366.05Z" transform="translate(-284.2065 -276.4225)" fill="#fff"/></svg>