<svg xmlns="http://www.w3.org/2000/svg" width="49.833" height="49.023" viewBox="0 0 49.833 49.023">
  <g id="그룹_364" data-name="그룹 364" transform="translate(-513.685 212.095)">
    <path id="패스_848" data-name="패스 848" d="M537.954-209.953c-17.295.353-17.806,3.1-17.806,13.743s-1.014,21.849,0,24.867-2.718,8.6,9.795,8.6,29.92,0,31.779-1.019a10.628,10.628,0,0,0,5.049-8.737c0-4.445,2.57-37.453-9.7-37.453C547.009-209.953,542.577-210.047,537.954-209.953Z" transform="translate(-3.477 -1.215)" fill="#fff"/>
    <path id="패스_849" data-name="패스 849" d="M524.816-163.072c-4.647,0-7.536-.735-9.09-2.314-1.441-1.464-1.411-3.339-1.388-4.845a6.668,6.668,0,0,0-.156-2.044c-.7-2.076-.522-7.249-.3-13.8.12-3.517.255-7.505.255-11.349,0-11.059.8-14.264,18.673-14.628h0c2.836-.058,5.532-.046,9.615-.026,2.552.012,5.612.026,9.523.026a7.035,7.035,0,0,1,5.211,2.287c6.4,6.636,5.7,26.441,5.432,33.9-.034.96-.061,1.718-.061,2.156a11.424,11.424,0,0,1-5.509,9.513C555.114-163.155,541.9-163.072,524.816-163.072Zm8.029-47.21c-16.938.346-16.938,2.748-16.938,12.858,0,3.874-.135,7.877-.255,11.409-.208,6.119-.386,11.4.209,13.176a7.949,7.949,0,0,1,.249,2.636c-.021,1.357-.041,2.64.879,3.575,1.166,1.185,3.8,1.786,7.827,1.786,10.35,0,29.615,0,31.353-.91a9.691,9.691,0,0,0,4.589-7.96c0-.469.026-1.2.062-2.219.234-6.556.945-26.508-4.937-32.6a5.259,5.259,0,0,0-3.936-1.745c-3.915,0-6.978-.014-9.532-.026-4.068-.019-6.756-.032-9.57.026Z" fill="#565656"/>
    <g id="그룹_363" data-name="그룹 363" transform="translate(527.437 -197.533)">
      <path id="패스_850" data-name="패스 850" d="M555.4-156.373a10.023,10.023,0,0,1-3.912-1.025,9.588,9.588,0,0,1-3.012-2.531,9.068,9.068,0,0,1-1.82-3.473,12.593,12.593,0,0,1-.335-3.891,13.131,13.131,0,0,1,.754-3.787,11.394,11.394,0,0,1,2.468-3.66,8.026,8.026,0,0,1,3.849-2.469,11.809,11.809,0,0,1,4.08-.293,12.533,12.533,0,0,1,3.954,1.067,11.656,11.656,0,0,1,3.242,2.155,7.179,7.179,0,0,1,1.9,2.908,9.129,9.129,0,0,1,.418,3.535,8.233,8.233,0,0,1-.774,3.2,10.8,10.8,0,0,1-1.9,2.573,2.938,2.938,0,0,1-2.406,1.15,3,3,0,0,1-1.841-.858,4.636,4.636,0,0,1-1.025-1.59h-.126l-.084.251h-.083a5.866,5.866,0,0,1-2.824,1.652,4.163,4.163,0,0,1-2.7-.167,5.852,5.852,0,0,1-1.757-1.109,3.692,3.692,0,0,1-.879-1.422,6.342,6.342,0,0,1-.042-2.7,5.14,5.14,0,0,1,.983-2.7,13.029,13.029,0,0,1,1.841-1.694,4.66,4.66,0,0,1,2.009-1,7.358,7.358,0,0,1,1.924-.042,4.448,4.448,0,0,1,2.448,1.653h.126a3.054,3.054,0,0,1,.23-1.192,1.9,1.9,0,0,1,.376-.523.851.851,0,0,1,.691-.083l.5.251q.334.377.272.628t-.188,1.088q-.125.838-.523,2.7a12.828,12.828,0,0,0-.356,3.013,2.248,2.248,0,0,0,.439,1.527,1.408,1.408,0,0,0,.837.418q.439.042,1.151-.753a7.292,7.292,0,0,0,1.276-2.3,7.589,7.589,0,0,0,.482-3.1,6.037,6.037,0,0,0-.565-2.489,6.64,6.64,0,0,0-1.632-1.862,12.459,12.459,0,0,0-3.033-1.778,7.365,7.365,0,0,0-3.577-.669,12.9,12.9,0,0,0-2.74.481,7.317,7.317,0,0,0-2.573,1.841,8.482,8.482,0,0,0-2.113,3.138,10.858,10.858,0,0,0-.607,3.577,11.969,11.969,0,0,0,.4,3.41,7.231,7.231,0,0,0,1.925,2.991,5.977,5.977,0,0,0,2.928,1.82,11.428,11.428,0,0,0,2.825.23,8.885,8.885,0,0,0,2.845-.628q1.444-.565,2.134-.9t.921-.23a1.078,1.078,0,0,1,.4.314.6.6,0,0,1,.146.439,1.18,1.18,0,0,1-.167.482,3.269,3.269,0,0,1-.92.753,13.079,13.079,0,0,1-2.532,1.13A9.732,9.732,0,0,1,555.4-156.373Zm.628-6.82a15.345,15.345,0,0,0,2.071-2.322,3.3,3.3,0,0,0,.523-1.82,6.781,6.781,0,0,0-.188-1.716,1.948,1.948,0,0,0-.858-1.15,2.327,2.327,0,0,0-1.925-.083,4.118,4.118,0,0,0-2.133,1.464,3.984,3.984,0,0,0-.962,2.029,11.928,11.928,0,0,0-.042,1.716,2.093,2.093,0,0,0,.878,1.485A3.258,3.258,0,0,0,556.028-163.193Z" transform="translate(-546.294 177.564)" fill="#565656"/>
    </g>
  </g>
</svg>
