<svg xmlns="http://www.w3.org/2000/svg" width="74.7294" height="26.2392" viewBox="0 0 74.7294 26.2392"><path d="M512.5864,445.931a2.1191,2.1191,0,0,0-.179-.3886,1.5465,1.5465,0,0,0-.4411-.4523,1.4638,1.4638,0,0,0-1.1389-.147,3.3718,3.3718,0,0,0-.7445.2526,1.2753,1.2753,0,0,0-.6969.81,1.5787,1.5787,0,0,0,.0919.9372,3.7192,3.7192,0,0,0,.3.6966,2.1464,2.1464,0,0,0,.6574.69.91.91,0,0,0,1.2451-.3265l.0107-.0247a2.9828,2.9828,0,0,0,.4511-.2348,1.2723,1.2723,0,0,0,.4418-.4665,1.3054,1.3054,0,0,0,.15-.6661A2.2243,2.2243,0,0,0,512.5864,445.931Z" transform="translate(-502.5818 -426.3434)" fill="#f0a0b1"/><path d="M532.8208,436.0849c-.7287-1.9211-1.49-3.9084-2.02-5.5646-.53,1.7223-1.1923,3.5113-1.9875,5.5646l-4.9949,12.9113a.7082.7082,0,0,1-.9936.364.6208.6208,0,0,1-.3974-.894l7.446-19.0386a1.0192,1.0192,0,0,1,1.8545,0l8.5785,22.1911a.6348.6348,0,0,1-.43.8941.708.708,0,0,1-.9935-.364Z" transform="translate(-502.5818 -426.3434)" fill="#565656"/><path d="M558.1258,440.2071v10.55c0,1.2918-.4969,1.7554-1.2918,1.7554-.53,0-.8279-.1987-1.2584-.8941l-11.427-19.1109a14.4118,14.4118,0,0,1-.9274-1.8879v9.5344c0,.43-.364.5962-.7618.5962-.364,0-.7284-.1657-.7284-.5962v-9.5014c0-1.2918.4966-1.7554,1.2915-1.7554.53,0,.8282.1988,1.2587.8944l11.4267,19.1109a14.2889,14.2889,0,0,1,.9274,1.888V440.2071c0-.4308.3644-.5961.7287-.5961C557.7615,439.611,558.1258,439.7763,558.1258,440.2071Z" transform="translate(-502.5818 -426.3434)" fill="#565656"/><path d="M571.8882,436.0849c-.7288-1.9211-1.4906-3.9084-2.02-5.5646-.53,1.7223-1.1922,3.5113-1.9875,5.5646l-6.2266,16.0639a.7082.7082,0,0,1-.9936.364.6209.6209,0,0,1-.3974-.8941l8.6777-22.1911a1.0192,1.0192,0,0,1,1.8545,0l6.4576,16.514a.6349.6349,0,0,1-.4305.8941.7081.7081,0,0,1-.9936-.364Z" transform="translate(-502.5818 -426.3434)" fill="#565656"/><path d="M518.2479,435.2164c-.3644,0-.7288.1653-.7288.5962V439.43H504.1053v-4.348c.0446-1.6595.47-7.03,4.094-7.211a.7644.7644,0,0,0-.0764-1.5268c-5.1528.2575-5.5256,7.2055-5.54,8.9055l-.0015.0007v16.7324c0,.43.3643.5961.7283.5961.4309,0,.7952-.1656.7952-.5961V440.7882h13.4138v11.1949c0,.43.3644.5961.7288.5961.43,0,.7948-.1656.7948-.5961V435.8126C519.0427,435.3817,518.6783,435.2164,518.2479,435.2164Z" transform="translate(-502.5818 -426.3434)" fill="#565656"/><circle cx="67.2717" cy="18.6487" r="2.1208" fill="#565656"/><path d="M512.8184,445.63a.5457.5457,0,0,0-.7721.01l-1.2232,1.2557L509.6,445.64a.546.546,0,0,0-.7825.7618l1.4595,1.4984v1.1131a.546.546,0,1,0,1.092,0v-1.1131l1.4594-1.4984A.5459.5459,0,0,0,512.8184,445.63Z" transform="translate(-502.5818 -426.3434)" fill="#565656"/><circle cx="3.3668" cy="17.1926" r="0.5539" fill="#565656"/><circle cx="13.1002" cy="17.1926" r="0.5539" fill="#565656"/></svg>