<?xml version="1.0"?>
<svg xmlns="http://www.w3.org/2000/svg"  fill="#565656"  id="Layer_1" data-name="Layer 1" viewBox="0 0 512 512" width="512" height="512"><path d="M486,195H462V149.99A46.06,46.06,0,0,0,415.98,104H102.02A46.06,46.06,0,0,0,56,149.99V195H25a6,6,0,0,0-6,6V348a6,6,0,0,0,6,6H36v48.01A5.924,5.924,0,0,0,41.92,408H96.19a5.832,5.832,0,0,0,5.81-5.99V354H416v48.01a5.832,5.832,0,0,0,5.81,5.99h54.27a5.924,5.924,0,0,0,5.92-5.99V354h4a6,6,0,0,0,6-6V201A6,6,0,0,0,486,195ZM90,396H48V354H90Zm80-54H31V207H91v70a6,6,0,0,0,6,6h16.673a6,6,0,0,0,0-12H103V201a6,6,0,0,0-6-6H68V149.99A34.047,34.047,0,0,1,102.02,116H250v22.667a6,6,0,1,0,12,0V116H415.98A34.047,34.047,0,0,1,450,149.99V195H415a6,6,0,0,0-6,6v70H369.036l22.087-22.087a6,6,0,0,0,0-8.485l-51.38-51.39a6,6,0,0,0-8.486,0l-51.38,51.39a6,6,0,0,0,0,8.485L301.965,271H262V162a6,6,0,0,0-12,0V271H213.036l22.087-22.087a6,6,0,0,0,0-8.485l-51.38-51.39a6,6,0,0,0-8.486,0l-51.38,51.39a6,6,0,0,0,0,8.485L145.965,271h-9.634a6,6,0,0,0,0,12H170Zm182.064-71H318.935L292.6,244.669l42.9-42.9,42.9,42.9Zm-156,0H162.935L136.6,244.669l42.9-42.9,42.9,42.9ZM330,342H182V283H330Zm140,54H428V354h42Zm10-54H342V283h73a6,6,0,0,0,6-6V207h59Z"/></svg>
