<svg id="그룹_357" data-name="그룹 357" xmlns="http://www.w3.org/2000/svg" width="51.408" height="58.904" viewBox="0 0 51.408 58.904">
  <path id="패스_826" data-name="패스 826" d="M350.055-368.686s7.94-4.566,9.826-4.367-.2-.794-.2-.794l-11.116,2.68s-12.6,3.678-9.33,7.642.5,3.573.5,3.573-4.268,3.077-3.176,4.268,1.29.5,1.29.5l2.779,1.29,8.833-3.573s13.3-4.069,17.369.6,6.551,6.253,7.742,5.955,4.069,3.672,3.176,5.756-.3,4.764,1.489,3.176,3.97-6.154,3.275-8.833c0,0,4.268,2.481,4.566,1.588s-2.382-7.742-5.261-9.627l.4-1.985s.4-11.414-27.393-5.558C354.819-366.4,345.192-364.716,350.055-368.686Z" transform="translate(-335.69 379.258)" fill="#9b9b9b"/>
  <path id="패스_827" data-name="패스 827" d="M363.978-375.375s4.764-7.245,6.451-7.344-.5,5.062-.5,5.062Z" transform="translate(-352.789 384.756)" fill="#5b5b5b"/>
  <path id="패스_828" data-name="패스 828" d="M376.165-312.063c-6.087-3.176-19.982-1.191-24.614,1.588s-8.469,24.217-3.97,24.349,11.777,1.324,17.336,1.853,15.748,3.176,18-1.72S381.509-309.275,376.165-312.063Zm-7.146,16.277c-1.434.711-8.668,1.985-11.844.993a5.874,5.874,0,0,1-4.5-5.757c.066-2.316,6.286-4.764,9.909-6.187a46.663,46.663,0,0,1,5.971.364C373.718-305.909,373.221-297.87,369.02-295.786Z" transform="translate(-341.388 341.988)" fill="#9b9b9b"/>
  <path id="패스_829" data-name="패스 829" d="M387.612-287.311c.619,1.912-1.585,4.338-4.922,5.419s-6.545.407-7.164-1.505,2.342-3.225,5.679-4.306S386.993-289.223,387.612-287.311Z" transform="translate(-359.892 326.462)" fill="#5b5b5b"/>
  <g id="그룹_356" data-name="그룹 356" transform="translate(0 0)">
    <path id="패스_830" data-name="패스 830" d="M384.606-361.812A18.341,18.341,0,0,0,380.6-367.1a2.868,2.868,0,0,0,1.524-2.054c.18-1.539-1.133-3.138-4.134-5.034-7.761-4.9-24.689-2.107-25.407-1.985a.8.8,0,0,0-.654.921.8.8,0,0,0,.921.654c.169-.029,17.042-2.815,24.287,1.761,3.2,2.023,3.444,3.119,3.4,3.5-.092.78-1.652,1.314-2.24,1.515-.15.051-.271.094-.351.127-.054.023-.113.043-.172.065a1.971,1.971,0,0,0-1.375,1.209c-.334,1.034.257,2.56,1.977,5.1,2.291,3.385-.276,7.1-1.4,8.454a11.068,11.068,0,0,1,.516-2.333c.6-1.975.42-3.522-.551-4.6a4.987,4.987,0,0,0-4.4-1.231,5.077,5.077,0,0,1-2.5-1.345c-1.642-1.321-3.447-3.491-3.584-5.62a.8.8,0,0,0-.849-.746.8.8,0,0,0-.746.849,7.644,7.644,0,0,0,1.246,3.514c-4.371-3.479-9.981-3.221-15.412-2.972l-1.055.048a24.156,24.156,0,0,0-8.292,2.38c-1.276.547-3.025,1.3-3.408,1.1-.135-.313-.066-.445-.037-.5.473-.905,3.783-1.589,6.443-2.139,2.359-.487,3.46-1.284,3.272-2.368-.237-1.36-2.5-1.771-4.612-1.473-2.735.382-4.349-2.412-4.584-2.851a3.131,3.131,0,0,1,.4-2.428c.934-1.5,3.176-2.526,6.484-2.981a53.674,53.674,0,0,0,8.611-2.127,24.976,24.976,0,0,1,4.535-1.146,23.541,23.541,0,0,1-6.236,3.246c-2.443.892-3.459.859-3.619.788a.8.8,0,0,0-1.122.133.8.8,0,0,0,.133,1.122c1.965,1.549,10.841-2.711,12.353-4.564a1.245,1.245,0,0,0,0-1.856c-1.1-.931-3.142-.3-6.52.752-.693.215-1.44.446-2.22.675,2.589-4.3,2.442-5.568,1.922-6.227a.8.8,0,0,0-.846-.273c-3.175.906-5.418,4.733-6.751,7.822-.153.024-.306.051-.46.072-3.874.533-6.447,1.8-7.646,3.757a4.722,4.722,0,0,0-.522,3.8.77.77,0,0,0,.04.093,8.237,8.237,0,0,0,2.732,3.007c-4.908,1.685-5.232,3.321-5.107,4.005a.8.8,0,0,0,.785.656.817.817,0,0,0,.145-.013.8.8,0,0,0,.655-.8c.059-.164.71-1.522,6.324-3.019l.014-.005a5.346,5.346,0,0,0,.718-.053,5.725,5.725,0,0,1,2.564.137,6.769,6.769,0,0,1-1.769.558c-4.162.86-6.753,1.464-7.536,2.965a2.106,2.106,0,0,0-.016,1.87,1.609,1.609,0,0,0,1.62.989,3.7,3.7,0,0,0,.816-.1,20.119,20.119,0,0,0,3.07-1.149,22.936,22.936,0,0,1,7.732-2.252l1.06-.048c5.512-.254,10.721-.494,14.661,2.886a.8.8,0,0,0,1.127-.086.791.791,0,0,0,.189-.512,14.086,14.086,0,0,0,2.515,2.51c.684.527,2.406,1.729,3.591,1.494a3.4,3.4,0,0,1,2.9.733c.568.63.638,1.66.21,3.06-.783,2.556-.79,3.907-.024,4.515a1.241,1.241,0,0,0,.784.266,1.534,1.534,0,0,0,.755-.2.8.8,0,0,0,.168-.13c1.565-1.584,3.764-5.017,3.1-8.477.214.177.435.356.645.53,1.325,1.1,2.32,1.78,3.084,1.78a1.086,1.086,0,0,0,.676-.226C385.992-358.247,385.608-359.578,384.606-361.812Zm-32.892-24.238a23.271,23.271,0,0,1-2.548,4.8.789.789,0,0,0-.115.3c-.52.132-1.047.259-1.583.374C348.4-382.5,349.858-384.945,351.714-386.049Zm30.7,25.654c-1.044-.866-2.142-1.762-3.264-2.663-1.346-2.146-1.267-2.764-1.231-2.872.019-.061.25-.145.4-.2.081-.03.16-.059.234-.089s.149-.054.259-.092l.205-.071a17.387,17.387,0,0,1,4.128,5.225,16.463,16.463,0,0,1,.736,1.871A15.354,15.354,0,0,1,382.415-360.4Z" transform="translate(-334.57 388.069)" fill="#565656"/>
    <path id="패스_831" data-name="패스 831" d="M356.514-355.483a.993.993,0,0,0-.1,1.4.993.993,0,0,0,1.4.1.993.993,0,0,0,.1-1.4A.993.993,0,0,0,356.514-355.483Z" transform="translate(-347.952 368.031)" fill="#565656"/>
  </g>
  <path id="패스_832" data-name="패스 832" d="M345.724-288.808c-2.791,0-4.825-.705-6.057-2.1-2.1-2.387-1.368-6.133-.88-8.611.042-.213.082-.417.119-.612l.148-.8c.735-4,1.965-10.686,5.625-14.578,3.9-4.145,12.975-5.587,13.359-5.646a.8.8,0,0,1,.912.667.8.8,0,0,1-.667.912c-.089.014-8.92,1.419-12.439,5.162-3.339,3.55-4.516,9.949-5.218,13.773l-.149.8c-.037.2-.078.407-.121.625-.452,2.3-1.072,5.45.511,7.246,1.065,1.208,3.089,1.719,6.013,1.521,6.672-.455,15.566-.232,21.452-.086,2.946.073,5.275.131,6.313.084a2.336,2.336,0,0,0,1.833-1.114c1.148-1.641,1.735-5.433-.062-11.155-.25-.8-.478-1.612-.721-2.476-1.176-4.2-2.509-8.961-6.591-11.184-3.6-1.963-8.908-1.818-16.216.444a.8.8,0,0,1-1-.527.8.8,0,0,1,.527-1c7.742-2.4,13.45-2.5,17.454-.321,4.673,2.546,6.1,7.651,7.365,12.156.239.852.464,1.657.706,2.428,1.673,5.33,1.615,10.022-.154,12.55a3.9,3.9,0,0,1-3.07,1.794c-1.1.051-3.447-.008-6.425-.083-5.856-.146-14.706-.367-21.3.082Q346.333-288.808,345.724-288.808Z" transform="translate(-336.853 346.619)" fill="#565656"/>
  <path id="패스_833" data-name="패스 833" d="M371.8-283.269c-3.533,0-6.613-1.137-8.163-3.1a5.12,5.12,0,0,1-.679-5.183c1.847-5.014,4.939-5.562,8.854-6.257.371-.066.752-.134,1.144-.207,1.779-.333,6.213-.89,8.963,1.147a5.406,5.406,0,0,1,2.168,3.916c.563,5.066-3.361,8.728-10.241,9.557A17.174,17.174,0,0,1,371.8-283.269Zm1.3-13.959.147.786c-.4.074-.783.143-1.159.21-3.806.675-6.1,1.083-7.634,5.236a3.554,3.554,0,0,0,.433,3.64c1.482,1.875,5,2.831,8.764,2.378,5.91-.712,9.3-3.7,8.844-7.794a3.817,3.817,0,0,0-1.531-2.809c-2.245-1.662-6.145-1.156-7.718-.861Z" transform="translate(-351.911 332.48)" fill="#565656"/>
  <path id="패스_834" data-name="패스 834" d="M379.579-282.4a5.184,5.184,0,0,1-1.348-.158c-1.911-.522-2.083-1.782-2.068-2.3.048-1.626,1.924-3.239,4.363-3.752l.325-.069c2.837-.6,5.771-1.221,6.857.407a2.124,2.124,0,0,1-.142,2.552C386.287-283.946,382.332-282.4,379.579-282.4Zm5.614-5.316a22.754,22.754,0,0,0-4.011.6l-.326.069h0c-1.962.414-3.076,1.584-3.095,2.236-.011.384.478.6.891.711,1.938.53,6.5-1,7.618-2.554.309-.429.183-.618.108-.731C386.218-287.628,385.774-287.718,385.193-287.718Zm-4.5-.112h0Z" transform="translate(-360.338 326.887)" fill="#565656"/>
</svg>
