<svg xmlns="http://www.w3.org/2000/svg" width="120.513" height="120.515" viewBox="0 0 120.513 120.515">
  <g id="그룹_370" data-name="그룹 370" transform="translate(-1442.652 -232.665)">
    <path id="패스_853" data-name="패스 853" d="M1491.063,323.29c27.949,0,43.234-23.155,43.234-43.234q0-.987-.044-1.964a30.925,30.925,0,0,0,7.581-7.868,30.3,30.3,0,0,1-8.727,2.392,15.248,15.248,0,0,0,6.682-8.4,30.472,30.472,0,0,1-9.648,3.688,15.209,15.209,0,0,0-25.9,13.858,43.14,43.14,0,0,1-31.32-15.876,15.208,15.208,0,0,0,4.7,20.286,15.092,15.092,0,0,1-6.882-1.9c0,.063,0,.127,0,.193a15.2,15.2,0,0,0,12.191,14.9,15.164,15.164,0,0,1-6.862.261,15.211,15.211,0,0,0,14.195,10.554,30.5,30.5,0,0,1-18.873,6.5,30.975,30.975,0,0,1-3.624-.21,43.021,43.021,0,0,0,23.292,6.825" fill="#fff"/>
    <path id="패스_854" data-name="패스 854" d="M1562.37,268.2a41.235,41.235,0,0,0-2.676-14.7,28.045,28.045,0,0,0-17.37-17.37,41.253,41.253,0,0,0-14.694-2.668,457.1,457.1,0,0,0-49.443,0,41.256,41.256,0,0,0-14.7,2.668,28.064,28.064,0,0,0-17.377,17.378,30.447,30.447,0,0,0-2.669,14.694,197.491,197.491,0,0,0-.669,24.722,197.475,197.475,0,0,0,.669,24.721,41.255,41.255,0,0,0,2.676,14.7,28.043,28.043,0,0,0,17.37,17.371,41.257,41.257,0,0,0,14.7,2.675,459.374,459.374,0,0,0,49.436-.007,41.235,41.235,0,0,0,14.7-2.676,28.028,28.028,0,0,0,17.37-17.37,41.259,41.259,0,0,0,2.676-14.7c-.008-6.675.661-8.682.661-24.714A197.282,197.282,0,0,0,1562.37,268.2Zm-10.688,48.774a30.974,30.974,0,0,1-2.007,11.357,23.466,23.466,0,0,1-11.357,11.358,31.016,31.016,0,0,1-11.357,2.007c-6.013,0-8.02.669-24.053.669a184.446,184.446,0,0,1-24.052-.669,31.013,31.013,0,0,1-11.357-2.007,23.468,23.468,0,0,1-11.358-11.358,31.012,31.012,0,0,1-2.007-11.357c0-6.013-.669-8.02-.669-24.052a184.632,184.632,0,0,1,.669-24.053,31.016,31.016,0,0,1,2.007-11.357,24,24,0,0,1,4.675-6.682,11.277,11.277,0,0,1,6.683-4.675,30.971,30.971,0,0,1,11.357-2.007,432.711,432.711,0,0,1,48.105,0,30.975,30.975,0,0,1,11.357,2.007,23.464,23.464,0,0,1,11.357,11.357,30.978,30.978,0,0,1,2.007,11.357c0,6.014.669,8.02.669,24.053A184.274,184.274,0,0,1,1551.682,316.973Z" fill="#fff" fill-rule="evenodd"/>
  </g>
</svg>
